<?xml version="1.0" standalone="no"?>
<!DOCTYPE svg PUBLIC "-//W3C//DTD SVG 20010904//EN"
 "http://www.w3.org/TR/2001/REC-SVG-20010904/DTD/svg10.dtd">
<svg version="1.0" xmlns="http://www.w3.org/2000/svg"
 width="320.000000pt" height="320.000000pt" viewBox="0 0 320.000000 320.000000"
 preserveAspectRatio="xMidYMid meet">

<g transform="translate(0.000000,320.000000) scale(0.100000,-0.100000)"
fill="#000000" stroke="none">
<path d="M999 2656 c-67 -18 -136 -62 -170 -109 -60 -83 -60 -79 -57 -803 l3
-659 33 -67 c39 -79 92 -128 163 -151 45 -15 119 -17 618 -17 489 0 575 2 621
16 71 21 124 56 160 106 60 82 60 86 60 718 0 627 -1 635 -57 743 l-28 52 -3
-48 -3 -48 -92 3 -92 3 0 70 0 70 45 5 c31 3 40 7 28 12 -22 9 -24 32 -2 24 9
-3 12 -2 9 4 -11 18 -81 49 -156 70 -69 19 -101 20 -554 19 -347 0 -493 -4
-526 -13z m1341 -471 l0 -75 -95 0 -95 0 0 75 0 75 95 0 95 0 0 -75z m-1297
-86 c139 -78 257 -144 262 -147 6 -3 -1 7 -15 23 -19 21 -21 27 -7 22 9 -4 17
-4 17 0 0 3 -35 44 -77 91 -93 101 -142 158 -128 150 6 -3 107 -61 225 -128
118 -68 287 -164 375 -215 88 -51 175 -100 193 -109 17 -9 32 -18 32 -21 0 -5
16 5 -447 -259 -199 -113 -365 -206 -368 -206 -3 0 38 51 91 113 108 123 137
159 114 140 -26 -24 -34 -13 -9 14 33 37 25 32 -251 -125 -135 -76 -247 -138
-249 -136 -2 2 41 54 96 116 267 304 280 321 278 356 -1 25 -15 47 -56 90 -30
31 -95 102 -145 156 -49 55 -113 126 -143 158 -29 32 -50 58 -46 58 4 0 120
-64 258 -141z m1297 -194 l0 -75 -95 0 -95 0 0 68 c0 38 3 72 7 75 3 4 46 7
95 7 l88 0 0 -75z m0 -280 l0 -76 -92 3 -93 3 -3 59 c-5 87 -6 86 98 86 l90 0
0 -75z m0 -280 l0 -76 -92 3 -93 3 -3 59 c-5 87 -6 86 98 86 l90 0 0 -75z m0
-280 l0 -76 -92 3 -93 3 -3 59 c-5 87 -6 86 98 86 l90 0 0 -75z"/>
<path d="M1130 710 c0 -63 2 -70 20 -70 17 0 20 7 20 50 0 29 5 50 11 50 6 0
8 -9 4 -21 -5 -13 -2 -25 6 -31 11 -7 11 -11 2 -15 -23 -9 -15 -35 10 -31 25
3 36 41 17 63 -7 9 -8 15 0 20 28 17 -9 55 -56 55 l-34 0 0 -70z"/>
<path d="M1260 778 c-1 -2 -2 -33 -3 -70 -2 -59 0 -68 15 -68 15 0 18 9 18 50
0 38 4 50 15 50 18 0 19 -12 4 -27 -17 -17 8 -73 32 -73 22 0 23 4 8 32 -8 14
-8 23 0 31 30 30 -5 77 -57 77 -18 0 -32 -1 -32 -2z"/>
<path d="M1390 710 c0 -56 3 -70 15 -70 12 0 15 14 15 70 0 56 -3 70 -15 70
-12 0 -15 -14 -15 -70z"/>
<path d="M1460 711 c0 -64 2 -71 20 -71 16 0 20 7 21 38 l1 37 15 -37 c10 -25
22 -38 34 -38 23 0 23 3 4 40 -14 27 -14 33 0 60 19 36 19 40 0 40 -8 0 -22
-15 -32 -32 l-17 -33 -6 30 c-3 17 -12 31 -23 33 -15 3 -17 -5 -17 -67z"/>
<path d="M1616 764 c-18 -18 -20 -38 -6 -64 8 -15 6 -21 -6 -28 -10 -6 -15
-16 -11 -26 8 -21 20 -20 48 3 22 18 23 22 11 53 -8 21 -9 34 -2 36 16 6 12
42 -4 42 -8 0 -22 -7 -30 -16z"/>
<path d="M1690 710 c0 -62 2 -70 19 -70 22 0 33 49 24 105 -4 25 -11 35 -24
35 -17 0 -19 -8 -19 -70z"/>
<path d="M1750 710 c0 -63 2 -70 20 -70 18 0 20 7 20 70 0 63 -2 70 -20 70
-18 0 -20 -7 -20 -70z"/>
<path d="M1810 773 c0 -5 7 -17 15 -27 8 -11 15 -39 15 -63 0 -36 3 -43 20
-43 16 0 20 7 20 34 0 19 9 51 21 70 19 33 19 36 4 36 -10 0 -24 -8 -31 -17
-13 -17 -15 -17 -25 0 -10 17 -39 24 -39 10z"/>
<path d="M1946 764 c-11 -10 -16 -34 -16 -70 0 -46 3 -54 19 -54 22 0 35 37
25 74 -3 13 -1 27 4 30 14 8 24 -40 17 -75 -6 -25 -3 -29 14 -29 19 0 21 6 21
58 0 32 -5 63 -12 70 -17 17 -54 15 -72 -4z"/>
<path d="M1344 586 c-3 -8 -4 -21 -1 -28 3 -7 6 -2 6 12 1 20 3 22 11 10 6 -9
10 -10 10 -3 0 19 -20 26 -26 9z"/>
<path d="M1389 593 c0 -4 -2 -16 -4 -25 -2 -11 3 -16 16 -15 14 1 19 8 17 21
-3 19 -27 36 -29 19z"/>
<path d="M1441 586 c-16 -19 -6 -36 20 -36 15 0 20 6 17 22 -4 27 -21 33 -37
14z m26 -22 c-9 -9 -28 6 -21 18 4 6 10 6 17 -1 6 -6 8 -13 4 -17z"/>
<path d="M1501 573 c1 -28 1 -28 8 -3 5 17 9 21 15 12 4 -6 4 -16 1 -22 -3 -5
-1 -10 5 -10 18 0 7 44 -12 48 -14 3 -18 -3 -17 -25z"/>
<path d="M1579 578 c0 -22 -1 -22 -9 -3 -8 19 -9 19 -9 -2 -1 -14 5 -23 14
-23 9 0 15 9 15 25 0 31 -10 33 -11 3z"/>
<path d="M1610 585 c-6 -8 -9 -19 -5 -25 8 -12 45 -13 45 -1 0 5 -10 7 -21 4
-16 -4 -20 -2 -17 8 3 8 13 13 23 11 10 -2 14 1 10 7 -9 15 -20 14 -35 -4z"/>
<path d="M1668 575 c6 -32 17 -32 18 0 1 14 -4 25 -11 25 -8 0 -10 -9 -7 -25z"/>
<path d="M1712 575 c0 -16 2 -22 5 -12 2 9 2 23 0 30 -3 6 -5 -1 -5 -18z"/>
<path d="M1741 586 c-16 -19 -6 -36 20 -36 15 0 20 6 17 22 -4 27 -21 33 -37
14z m29 -17 c0 -5 -7 -9 -15 -9 -15 0 -20 12 -9 23 8 8 24 -1 24 -14z"/>
<path d="M1804 586 c-3 -8 -4 -21 -1 -28 3 -8 6 -5 7 7 l1 20 9 -20 c8 -19 9
-19 9 2 1 27 -17 40 -25 19z"/>
</g>
</svg>
